<?xml version="1.0" encoding="UTF-8" standalone="no"?><!-- Generator: Gravit.io --><svg xmlns="http://www.w3.org/2000/svg" xmlns:xlink="http://www.w3.org/1999/xlink" style="isolation:isolate" viewBox="0 0 1200 1200" width="1200pt" height="1200pt"><defs><clipPath id="_clipPath_U9O9mBclCIvBgDeZMNd3UEuVMD0BqrSQ"><rect width="1200" height="1200"/></clipPath></defs><g clip-path="url(#_clipPath_U9O9mBclCIvBgDeZMNd3UEuVMD0BqrSQ)"><g><path d=" M 435.92 435.92 C 481.273 392.234 553.435 393.523 597.2 438.8 C 642.487 482.539 643.743 554.709 600.004 599.996 C 600.003 599.997 600.001 599.999 600 600 C 556.122 646.741 558.444 720.202 605.185 764.08 C 649.852 806.01 719.414 806.01 764.08 764.08 C 852.446 671.296 848.864 524.446 756.08 436.08 C 666.48 350.747 525.68 350.747 436.08 436.08 L 435.92 435.92 Z  M 752 696 L 720 696 L 720 640 C 697.909 640 680 622.091 680 600 C 680 577.909 697.909 560 720 560 C 739.392 560 755.562 573.801 759.223 592.116 C 759.733 594.665 760 597.301 760 600 C 760 622.091 742.091 640 720 640 L 720 696 L 752 696 Z " fill="rgb(49,175,212)"/><path d=" M 602.8 761.2 C 557.513 717.461 556.257 645.291 599.996 600.004 C 599.997 600.003 599.999 600.001 600 600 C 643.741 554.715 642.489 482.545 597.204 438.804 C 597.203 438.803 597.201 438.801 597.2 438.8 C 553.435 393.523 481.273 392.235 435.92 435.92 C 347.554 528.704 351.136 675.554 443.92 763.92 C 533.52 849.253 674.32 849.253 763.92 763.92 C 718.629 807.542 646.591 806.326 602.8 761.2 Z  M 552 544 L 552 496 L 476.32 571.68 C 491.961 587.281 491.993 612.608 476.391 628.249 C 460.79 643.89 435.463 643.922 419.822 628.32 C 404.181 612.719 404.149 587.392 419.751 571.752 C 427.238 564.246 437.398 560.02 447.999 560.001 C 458.615 559.982 468.803 564.184 476.319 571.681 L 551.999 496.001 L 552 544 Z " fill="rgb(237,33,124)"/><path d=" M 408 600 C 408.04 622.091 425.98 639.968 448.072 639.928 C 470.163 639.888 488.04 621.948 488 599.856 C 487.981 589.29 483.782 579.16 476.32 571.679 C 460.719 556.038 435.392 556.006 419.752 571.607 C 412.21 579.131 407.98 589.349 408 600 Z " fill="rgb(49,175,212)"/><circle vector-effect="non-scaling-stroke" cx="720" cy="600" r="40" fill="rgb(237,33,124)"/><g><path d=" M 446 648 C 419.49 648 398 626.51 398 600 C 398 573.49 419.49 552 446 552 C 472.51 552 494 573.49 494 600 C 494 626.51 472.509 648 446 648 Z  M 446 568 C 428.327 568 414 582.327 414 600 C 414 617.673 428.327 632 446 632 C 463.673 632 478 617.673 478 600 C 478 582.327 463.673 568 446 568 Z " fill="rgb(252,252,252)"/><path d=" M 767.603 606.198 C 764.563 629.78 744.409 648 720 648 C 693.49 648 672 626.51 672 600 C 672 573.49 693.49 552 720 552 C 746.51 552 768 573.49 768 600 C 768 602.1 767.865 604.169 767.603 606.198 Z  M 720 568 C 702.327 568 688 582.327 688 600 C 688 617.673 702.327 632 720 632 C 737.673 632 752 617.673 752 600 C 752 582.327 737.673 568 720 568 Z " fill="rgb(252,252,252)"/><path d=" M 470.328 566.34 L 546.356 490.312 L 557.67 501.626 L 481.642 577.654 L 470.328 566.34 Z " fill="rgb(252,252,252)"/><path d=" M 560 544 L 544 544 L 544 504 L 504 504 L 504 488 L 560 488 L 560 544 Z " fill="rgb(252,252,252)"/><path d=" M 712 713.942 L 712 640 L 728 640 L 728 728 L 712 728 L 712 713.942 Z " fill="rgb(252,252,252)"/><path d=" M 688 688 L 752 688 L 752 704 L 688 704 L 688 688 Z " fill="rgb(252,252,252)"/></g></g></g></svg>